<svg width="151" height="36" fill="none" xmlns="http://www.w3.org/2000/svg"><g clip-path="url(#a)" fill="#252525"><path d="M42.642 11.174h3.803v15.402h-3.803V11.174Zm5.32 9.608c0-3.815 2.37-6.101 5.923-6.101 3.555 0 5.925 2.286 5.925 6.101 0 3.816-2.287 6.126-5.925 6.126-3.637 0-5.924-2.228-5.924-6.126Zm8.08 0c0-2.097-.818-3.329-2.121-3.329s-2.109 1.185-2.109 3.33c0 2.144.806 3.317 2.109 3.317s2.145-1.173 2.145-3.306l-.024-.012Zm5.284 6.588H65a1.965 1.965 0 0 0 2.062 1.185c1.457 0 2.215-.782 2.215-1.943v-2.133h.012a3.638 3.638 0 0 1-3.554 2.073c-2.785 0-4.633-2.12-4.633-5.77 0-3.649 1.765-5.924 4.74-5.924a3.637 3.637 0 0 1 3.554 2.24h-.107v-2.145h3.768v11.54c0 2.785-2.465 4.526-6.09 4.526-3.294-.012-5.403-1.516-5.616-3.637l-.024-.012Zm7.962-6.588c0-1.86-.853-3.033-2.204-3.033-1.35 0-2.18 1.185-2.18 3.034 0 1.848.818 2.938 2.18 2.938 1.363 0 2.204-1.007 2.204-2.939Zm5.273 0c0-3.815 2.37-6.101 5.924-6.101 3.554 0 5.924 2.286 5.924 6.101 0 3.816-2.299 6.126-5.924 6.126-3.626 0-5.9-2.228-5.9-6.126h-.024Zm8.08 0c0-2.097-.83-3.329-2.12-3.329-1.292 0-2.11 1.185-2.11 3.33 0 2.144.806 3.317 2.11 3.317 1.302 0 2.144-1.173 2.144-3.306l-.024-.012Zm5.308-8.637a1.942 1.942 0 1 1 1.943 1.86 1.873 1.873 0 0 1-1.92-1.848l-.023-.012Zm0 2.796h3.85v11.683h-3.79l-.06-11.683Zm17.701 5.841c0 3.804-1.706 6.008-4.609 6.008a3.638 3.638 0 0 1-3.554-2.169h-.071v5.759h-3.804V14.976h3.78v2.085h.071a3.661 3.661 0 0 1 3.554-2.251c2.986-.024 4.704 2.168 4.704 5.983l-.071-.012Zm-3.874 0c0-1.848-.865-3.044-2.204-3.044-1.339 0-2.18 1.184-2.192 3.044-.012 1.86.853 3.034 2.192 3.034 1.339 0 2.275-1.102 2.275-3.022l-.071-.012Zm10.367-6.113c3.187 0 5.166 1.505 5.189 3.922h-3.471c0-.842-.699-1.363-1.742-1.363-1.042 0-1.54.403-1.54 1.007 0 .604.438.794 1.315.972l2.441.497c2.369.498 3.317 1.446 3.317 3.211 0 2.37-2.192 3.981-5.45 3.981s-5.379-1.564-5.533-3.945h3.685c.106.865.794 1.374 1.907 1.374 1.114 0 1.635-.355 1.635-.983s-.355-.735-1.267-.924l-2.204-.463c-2.287-.485-3.483-1.682-3.483-3.471.071-2.322 2.061-3.803 5.272-3.803l-.071-.012Zm18.246 11.943h-3.685V24.42h-.071a3.34 3.34 0 0 1-3.4 2.429 4.06 4.06 0 0 1-3.076-1.26 4.057 4.057 0 0 1-1.107-3.136v-7.5h3.804v6.683c0 1.374.722 2.12 1.907 2.12a1.947 1.947 0 0 0 1.853-1.404 1.97 1.97 0 0 0 .055-.823v-6.576h3.791l-.071 11.659Zm1.836-11.67h3.697v2.25h.083a3.389 3.389 0 0 1 3.329-2.464 3.037 3.037 0 0 1 3.247 2.476h.166a3.553 3.553 0 0 1 3.554-2.476 3.693 3.693 0 0 1 3.617 2.44c.178.489.249 1.01.21 1.53v7.926h-3.827v-6.955c0-1.185-.557-1.849-1.635-1.849a1.66 1.66 0 0 0-1.671 1.884v6.92h-3.625v-6.99c0-1.186-.581-1.814-1.623-1.814a1.696 1.696 0 0 0-1.695 1.908v6.896h-3.803l-.024-11.683Zm-97.107-2.761a11.706 11.706 0 0 0-20.332-7.914H0v31.208h31.22V20.89a11.693 11.693 0 0 0 3.898-8.709Zm-6.007 0a5.712 5.712 0 0 1-9.745 4.054 5.71 5.71 0 1 1 9.745-4.054Zm-3.898 17.287H6.007V10.274h5.853c-.113.63-.172 1.268-.178 1.907A11.73 11.73 0 0 0 23.4 23.9a11.455 11.455 0 0 0 1.813-.154v5.723Z"/></g><defs><clipPath id="a"><path fill="#fff" transform="translate(0 .475)" d="M0 0h150.138v35H0z"/></clipPath></defs></svg>