<svg width="175" height="36" fill="none" xmlns="http://www.w3.org/2000/svg"><g clip-path="url(#a)" fill="#252525"><path d="M56.069 28.938a3.926 3.926 0 0 1-2.475-.711 2.315 2.315 0 0 1-.934-1.942V12.546a.387.387 0 0 1 .43-.43h2.49c.282 0 .415.148.415.43v12.672c0 .563.252.845.77.845.22.009.44-.016.653-.074.296 0 .46.089.474.356l.222 1.852a.386.386 0 0 1-.355.46 5.584 5.584 0 0 1-1.69.281Zm14.006-1.585a6.98 6.98 0 0 1-8.893 0 5.929 5.929 0 0 1 0-8.345 7.01 7.01 0 0 1 8.893 0 6.017 6.017 0 0 1 0 8.33v.015Zm-6.55-1.957a3.157 3.157 0 0 0 4.238 0 3.32 3.32 0 0 0 0-4.357 3.157 3.157 0 0 0-4.239 0 3.32 3.32 0 0 0 0 4.357Zm21.935-7.603c.281 0 .415.148.415.43V28.85a4.83 4.83 0 0 1-1.646 3.809 6.225 6.225 0 0 1-4.313 1.482 6.937 6.937 0 0 1-4.016-1.112 4.443 4.443 0 0 1-1.942-2.964c0-.297 0-.43.4-.43h2.49a.549.549 0 0 1 .49.34c.161.451.483.826.904 1.053a3.466 3.466 0 0 0 1.66.386 2.624 2.624 0 0 0 1.912-.682 2.519 2.519 0 0 0 .696-1.853v-.934a4.965 4.965 0 0 1-3.083.964 5.752 5.752 0 0 1-4.209-1.616 5.929 5.929 0 0 1 0-8.24 5.797 5.797 0 0 1 4.21-1.601 4.98 4.98 0 0 1 3.156 1.023v-.238a.386.386 0 0 1 .415-.43l2.46-.014Zm-5.751 8.478a2.607 2.607 0 0 0 2.03-.875 3.63 3.63 0 0 0 0-4.446 2.595 2.595 0 0 0-2.015-.86 2.666 2.666 0 0 0-2.06.875 3.142 3.142 0 0 0-.8 2.223 3.202 3.202 0 0 0 .785 2.208 2.684 2.684 0 0 0 2.06.875Zm18.956 1.081a7.01 7.01 0 0 1-8.892 0 6.032 6.032 0 0 1 0-8.344 7.026 7.026 0 0 1 8.892 0 6.018 6.018 0 0 1 0 8.33v.014ZM92.1 25.396a2.961 2.961 0 0 0 2.134.815 2.965 2.965 0 0 0 2.12-.815 3.364 3.364 0 0 0 0-4.357 2.963 2.963 0 0 0-2.12-.816 2.966 2.966 0 0 0-2.134.816 3.364 3.364 0 0 0 0 4.357Zm13.591-10.123a2.15 2.15 0 0 1-2.831 0 1.793 1.793 0 0 1 0-2.608 2.193 2.193 0 0 1 2.831 0c.177.167.319.37.416.594a1.806 1.806 0 0 1 0 1.42 1.807 1.807 0 0 1-.416.594Zm.311 13.665a3.986 3.986 0 0 1-2.475-.711 2.338 2.338 0 0 1-.919-1.942v-8.062a.39.39 0 0 1 .11-.32.383.383 0 0 1 .32-.11h2.49c.281 0 .415.148.415.43v6.995c0 .564.252.845.756.845.224.008.449-.017.667-.074.296 0 .459.089.474.356l.222 1.852c.011.055.01.11-.003.164a.394.394 0 0 1-.353.296 5.608 5.608 0 0 1-1.704.281Zm11.219-11.501a5.811 5.811 0 0 1 4.239 1.6 6.077 6.077 0 0 1 0 8.286 5.752 5.752 0 0 1-4.239 1.615 5.098 5.098 0 0 1-3.097-.963v5.35c0 .282-.149.415-.43.415h-2.49a.36.36 0 0 1-.317-.098.353.353 0 0 1-.098-.317V21.172a.774.774 0 0 0-.52-.844.774.774 0 0 0-.355-.03h-.489c-.326 0-.489-.12-.489-.356v-1.75a.478.478 0 0 1 .341-.488 4.449 4.449 0 0 1 1.601-.267 2.743 2.743 0 0 1 2.682 1.482 5.008 5.008 0 0 1 3.661-1.482Zm-2.312 7.959a2.827 2.827 0 0 0 2.046.874 2.834 2.834 0 0 0 2.045-.874 3.2 3.2 0 0 0 .815-2.268 3.155 3.155 0 0 0-.815-2.267 2.831 2.831 0 0 0-4.091 0 3.273 3.273 0 0 0-.785 2.267c-.03.828.25 1.637.785 2.268Zm15.177 3.542a7.146 7.146 0 0 1-3.809-.918 3.623 3.623 0 0 1-1.719-2.624c0-.296.104-.445.43-.445h2.179a.563.563 0 0 1 .489.326c.311.8 1.126 1.201 2.43 1.201.455.02.908-.07 1.32-.267a.859.859 0 0 0 .503-.726c0-.385-.237-.652-.711-.83a8.011 8.011 0 0 0-1.734-.37 16.484 16.484 0 0 1-2.075-.371 3.41 3.41 0 0 1-1.734-.993 3.176 3.176 0 0 1-.246-3.652c.227-.372.527-.692.883-.943a6.11 6.11 0 0 1 3.587-.948 6.552 6.552 0 0 1 3.498.874 3.304 3.304 0 0 1 1.63 2.327c0 .297-.133.445-.4.445h-2.194a.457.457 0 0 1-.444-.267 1.486 1.486 0 0 0-.771-.786 2.61 2.61 0 0 0-1.275-.296 2.579 2.579 0 0 0-1.259.252.741.741 0 0 0-.475.682.953.953 0 0 0 .712.874 8.028 8.028 0 0 0 1.763.445c.694.091 1.381.22 2.061.385a3.41 3.41 0 0 1 1.734.993 2.809 2.809 0 0 1 .726 2.03 2.958 2.958 0 0 1-1.378 2.58 6.479 6.479 0 0 1-3.721 1.022Zm20.765-.74a.4.4 0 0 1-.341.459 5.724 5.724 0 0 1-1.675.282 3.289 3.289 0 0 1-2.964-1.29 5.367 5.367 0 0 1-3.78 1.29 4.59 4.59 0 0 1-3.468-1.35 4.865 4.865 0 0 1-1.319-3.571v-5.795c0-.282.133-.43.415-.43h2.49c.282 0 .415.148.415.43v5.35a2.62 2.62 0 0 0 .637 1.823 2.235 2.235 0 0 0 1.705.697 2.456 2.456 0 0 0 1.778-.652 2.365 2.365 0 0 0 .667-1.764v-5.454c0-.282.134-.43.415-.43h2.52c.282 0 .415.148.415.43v6.98c0 .579.252.86.741.86.23.01.459-.016.682-.074a.383.383 0 0 1 .444.19.4.4 0 0 1 .045.166l.178 1.853Zm23.551-.001a.37.37 0 0 1-.341.46 5.745 5.745 0 0 1-1.704.281 3.96 3.96 0 0 1-2.476-.711 2.313 2.313 0 0 1-.993-1.942v-3.483a2.62 2.62 0 0 0-.622-1.823 2.106 2.106 0 0 0-1.66-.696 1.86 1.86 0 0 0-1.482.652 2.633 2.633 0 0 0-.563 1.749v5.469c0 .281-.134.43-.415.43h-2.505a.383.383 0 0 1-.32-.11.378.378 0 0 1-.11-.32v-5.35a2.74 2.74 0 0 0-.578-1.824 1.931 1.931 0 0 0-1.482-.696 2.15 2.15 0 0 0-1.631.652 2.451 2.451 0 0 0-.607 1.749v5.469a.39.39 0 0 1-.11.32.384.384 0 0 1-.32.11h-2.416c-.281 0-.415-.149-.415-.43v-6.981a.748.748 0 0 0-.031-.354.763.763 0 0 0-.843-.52h-.489c-.327 0-.49-.12-.49-.356v-1.75a.48.48 0 0 1 .341-.488 4.45 4.45 0 0 1 1.601-.267 2.788 2.788 0 0 1 2.638 1.363 5.017 5.017 0 0 1 3.765-1.363 4.251 4.251 0 0 1 3.512 1.57 4.897 4.897 0 0 1 3.884-1.57 4.68 4.68 0 0 1 3.512 1.349 4.825 4.825 0 0 1 1.319 3.572v2.86c0 .563.252.845.727.845.229.01.459-.014.681-.074.307 0 .47.118.49.355l.133 1.853ZM.608 15.866a20.29 20.29 0 0 1 39.38 0h-1.779c-3-.044-5.939.853-8.403 2.564a4.39 4.39 0 0 1-.445.282h-.208a4.226 4.226 0 0 1-.444-.282 15.074 15.074 0 0 0-16.822 0 4.39 4.39 0 0 1-.445.282h-.207a4.226 4.226 0 0 1-.445-.282 14.363 14.363 0 0 0-8.404-2.564H.608Zm34.4 9.293a4.994 4.994 0 0 1 3.201-1.052h2.386v-4.758H38.21a9.456 9.456 0 0 0-5.676 1.808 5.395 5.395 0 0 1-6.403 0 10.078 10.078 0 0 0-11.516 0 5.395 5.395 0 0 1-6.403 0 9.455 9.455 0 0 0-5.75-1.808H0v4.758h2.386a4.995 4.995 0 0 1 3.202 1.052 10.048 10.048 0 0 0 11.5 0 5.025 5.025 0 0 1 3.202-1.052 4.965 4.965 0 0 1 3.202 1.052 10.078 10.078 0 0 0 11.516 0Zm0 8.507a4.994 4.994 0 0 1 3.201-1.052h2.386v-4.757H38.21a9.456 9.456 0 0 0-5.676 1.808 5.395 5.395 0 0 1-6.403 0 10.079 10.079 0 0 0-11.516 0 5.395 5.395 0 0 1-6.403 0 9.456 9.456 0 0 0-5.75-1.808H0v4.757h2.386a4.995 4.995 0 0 1 3.202 1.052 10.048 10.048 0 0 0 11.5 0 5.025 5.025 0 0 1 3.202-1.052 4.965 4.965 0 0 1 3.202 1.052 10.078 10.078 0 0 0 11.516 0Z"/></g><defs><clipPath id="a"><path fill="#fff" transform="translate(0 .475)" d="M0 0h174.413v35H0z"/></clipPath></defs></svg>